<svg width="0" height="0" class="hidden">
    <!--  Info icon  -->
    <symbol id="info" xmlns="http://www.w3.org/2000/svg" fill="none" viewBox="0 0 24 24">
        <path
            stroke-linecap="round"
            stroke-linejoin="round"
            stroke-width="2"
            d="M13 16h-1v-4h-1m1-4h.01M21 12a9 9 0 11-18 0 9 9 0 0118 0z"
        />
    </symbol>

    <!--  Check icon  -->
    <symbol id="check" xmlns="http://www.w3.org/2000/svg" fill="none" viewBox="0 0 24 24">
        <path
            stroke-linecap="round"
            stroke-linejoin="round"
            stroke-width="2"
            d="M9 12l2 2 4-4m6 2a9 9 0 11-18 0 9 9 0 0118 0z"
        />
    </symbol>

    <!--  Warning icon  -->
    <symbol id="warning" xmlns="http://www.w3.org/2000/svg" fill="none" viewBox="0 0 24 24">
        <path
            stroke-linecap="round"
            stroke-linejoin="round"
            stroke-width="2"
            d="M12 9v2m0 4h.01m-6.938 4h13.856c1.54 0 2.502-1.667 1.732-3L13.732 4c-.77-1.333-2.694-1.333-3.464 0L3.34 16c-.77 1.333.192 3 1.732 3z"
        />
    </symbol>

    <!--  Error icon  -->
    <symbol id="error" xmlns="http://www.w3.org/2000/svg" fill="none" viewBox="0 0 24 24">
        <path
            stroke-linecap="round"
            stroke-linejoin="round"
            stroke-width="2"
            d="M10 14l2-2m0 0l2-2m-2 2l-2-2m2 2l2 2m7-2a9 9 0 11-18 0 9 9 0 0118 0z"
        />
    </symbol>

    <!--  Email icon  -->
    <symbol id="mail" xmlns="http://www.w3.org/2000/svg" viewBox="0 0 24 24">
        <g fill="none" stroke="currentColor" stroke-linecap="round" stroke-linejoin="round" stroke-width="2.5">
            <rect width="20" height="16" x="2" y="4" rx="2"/>
            <path d="m22 7-8.97 5.7a1.94 1.94 0 0 1-2.06 0L2 7"/>
        </g>
    </symbol>

    <!--  Password icon  -->
    <symbol id="password" xmlns="http://www.w3.org/2000/svg" viewBox="0 0 24 24">
        <g stroke-linejoin="round" stroke-linecap="round" stroke-width="2.5" fill="none" stroke="currentColor">
            <path
                d="M2.586 17.414A2 2 0 0 0 2 18.828V21a1 1 0 0 0 1 1h3a1 1 0 0 0 1-1v-1a1 1 0 0 1 1-1h1a1 1 0 0 0 1-1v-1a1 1 0 0 1 1-1h.172a2 2 0 0 0 1.414-.586l.814-.814a6.5 6.5 0 1 0-4-4z"
            />
            <circle cx="16.5" cy="7.5" r=".5" fill="currentColor"/>
        </g>
    </symbol>

    <!--  Search icon  -->
    <svg id="search" xmlns="http://www.w3.org/2000/svg" viewBox="0 0 24 24">
        <g stroke-linejoin="round" stroke-linecap="round" stroke-width="2.5" fill="none" stroke="currentColor">
            <circle cx="11" cy="11" r="8"/>
            <path d="m21 21-4.3-4.3"/>
        </g>
    </svg>
</svg>
